<svg width="16" height="17" viewBox="0 0 16 17" fill="none" xmlns="http://www.w3.org/2000/svg">
<path d="M8.00206 10.8846C8.75745 10.8846 9.39903 10.6202 9.92681 10.0914C10.4546 9.56263 10.7185 8.92053 10.7185 8.16513C10.7185 7.40974 10.4541 6.76816 9.92531 6.24038C9.39652 5.71261 8.75443 5.44872 7.99903 5.44872C7.24364 5.44872 6.60205 5.71311 6.07428 6.24188C5.5465 6.77067 5.28261 7.41277 5.28261 8.16817C5.28261 8.92356 5.547 9.56514 6.07578 10.0929C6.60456 10.6207 7.24666 10.8846 8.00206 10.8846ZM8.00054 9.96665C7.50054 9.96665 7.07554 9.79165 6.72554 9.44165C6.37554 9.09165 6.20054 8.66665 6.20054 8.16665C6.20054 7.66665 6.37554 7.24165 6.72554 6.89165C7.07554 6.54165 7.50054 6.36665 8.00054 6.36665C8.50054 6.36665 8.92554 6.54165 9.27554 6.89165C9.62554 7.24165 9.80054 7.66665 9.80054 8.16665C9.80054 8.66665 9.62554 9.09165 9.27554 9.44165C8.92554 9.79165 8.50054 9.96665 8.00054 9.96665ZM8.00054 12.8333C6.59713 12.8333 5.31359 12.4589 4.14993 11.7102C2.98625 10.9615 2.0574 9.97647 1.36339 8.7551C1.30784 8.65938 1.26724 8.56291 1.24159 8.46568C1.21595 8.36845 1.20312 8.26866 1.20312 8.16632C1.20312 8.06397 1.21595 7.9643 1.24159 7.8673C1.26724 7.77029 1.30784 7.67392 1.36339 7.5782C2.0574 6.35683 2.98625 5.37179 4.14993 4.62308C5.31359 3.87436 6.59713 3.5 8.00054 3.5C9.40395 3.5 10.6875 3.87436 11.8512 4.62308C13.0148 5.37179 13.9437 6.35683 14.6377 7.5782C14.6932 7.67392 14.7338 7.77039 14.7595 7.86762C14.7851 7.96485 14.798 8.06464 14.798 8.16698C14.798 8.26933 14.7851 8.369 14.7595 8.466C14.7338 8.56301 14.6932 8.65938 14.6377 8.7551C13.9437 9.97647 13.0148 10.9615 11.8512 11.7102C10.6875 12.4589 9.40395 12.8333 8.00054 12.8333ZM8.00054 11.8333C9.2561 11.8333 10.4089 11.5028 11.4589 10.8417C12.5089 10.1805 13.3117 9.28887 13.8672 8.16665C13.3117 7.04443 12.5089 6.15276 11.4589 5.49165C10.4089 4.83054 9.2561 4.49998 8.00054 4.49998C6.74499 4.49998 5.59221 4.83054 4.54221 5.49165C3.49221 6.15276 2.68943 7.04443 2.13388 8.16665C2.68943 9.28887 3.49221 10.1805 4.54221 10.8417C5.59221 11.5028 6.74499 11.8333 8.00054 11.8333Z" fill="#9D9D9D"/>
</svg>
